<mxfile host="app.diagrams.net" modified="2023-06-20T11:45:46.718Z" agent="Mozilla/5.0 (Windows NT 10.0; Win64; x64) AppleWebKit/537.36 (KHTML, like Gecko) Chrome/114.0.0.0 Safari/537.36 Edg/114.0.1823.51" version="21.2.9" etag="kg_DzIf7At_KxNx9R92D" type="github">
  <diagram name="Seite-1" id="cbHQuIeGqbisajEu11sI">
    <mxGraphModel>
      <root>
        <mxCell id="0" />
        <mxCell id="1" parent="0" />
      </root>
    </mxGraphModel>
  </diagram>
</mxfile>
